<svg xmlns="http://www.w3.org/2000/svg" version="1.1" xmlns:xlink="http://www.w3.org/1999/xlink" width="1000" height="1000"><metadata><rdf:RDF xmlns:rdf="http://www.w3.org/1999/02/22-rdf-syntax-ns#" xmlns:dc="http://purl.org/dc/elements/1.1/"><rdf:Description><dc:creator>RealFaviconGenerator</dc:creator><dc:source>https://realfavicongenerator.net</dc:source></rdf:Description></rdf:RDF></metadata><style>
    #light-icon {
      display: inline;
    }
    #dark-icon {
      display: none;
    }

    @media (prefers-color-scheme: dark) {
      #light-icon {
        display: none;
      }
      #dark-icon {
        display: inline;
      }
    }
  </style><g id="light-icon"><svg xmlns="http://www.w3.org/2000/svg" version="1.1" xmlns:xlink="http://www.w3.org/1999/xlink" width="1000" height="1000"><g clip-path="url(#SvgjsClipPath1207)"><rect width="1000" height="1000" fill="#fe640b"></rect><g transform="matrix(2.0833333333333335,0,0,2.0833333333333335,100,100)"><svg xmlns="http://www.w3.org/2000/svg" width="384" height="384" viewBox="0 0 384 384" fill="none"><rect width="384" height="384" fill="#FE640B"></rect><path d="M37.848 241.264C36.056 241.264 34.776 240.496 34.008 238.96C33.24 237.552 33.048 235.952 33.432 234.16C33.816 232.24 34.776 230.576 36.312 229.168C37.848 227.632 39.96 226.864 42.648 226.864C45.72 226.864 49.624 225.392 54.36 222.448C58.968 219.376 63.96 215.216 69.336 209.968C74.84 204.72 80.28 198.704 85.656 191.92C91.16 185.008 96.216 177.648 100.824 169.84C105.432 162.032 109.208 154.16 112.152 146.224L112.536 145.264C113.432 142.704 114.456 141.04 115.608 140.272C116.888 139.504 118.744 139.12 121.176 139.12C125.144 139.12 127.64 139.76 128.664 141.04C129.816 142.192 129.944 144.048 129.048 146.608L117.144 182.896C124.696 172.272 131.544 163.696 137.688 157.168C143.832 150.64 149.592 145.904 154.968 142.96C160.344 139.888 165.592 138.352 170.712 138.352C177.112 138.352 182.168 140.464 185.88 144.688C189.592 148.912 191.448 154.864 191.448 162.544C191.448 169.712 190.296 177.008 187.992 184.432C185.688 191.856 182.424 198.96 178.2 205.744C174.104 212.528 169.24 218.608 163.608 223.984C158.104 229.232 152.024 233.456 145.368 236.656C138.712 239.728 131.8 241.264 124.632 241.264C119.896 241.264 115.544 240.496 111.576 238.96C107.736 237.424 104.152 235.44 100.824 233.008L79.128 299.824C75.928 309.68 72.728 317.36 69.528 322.864C66.456 328.368 63.128 332.208 59.544 334.384C55.96 336.56 51.992 337.648 47.64 337.648C45.208 337.648 42.648 337.072 39.96 335.92C37.144 334.768 34.776 332.784 32.856 329.968C30.936 327.152 29.976 323.248 29.976 318.256C29.976 315.056 30.552 311.472 31.704 307.504C32.856 303.664 34.584 299.376 36.888 294.64C39.064 289.904 41.816 284.848 45.144 279.472C48.472 274.096 52.312 268.336 56.664 262.192C60.888 256.176 65.56 249.84 70.68 243.184C75.8 236.656 81.304 229.872 87.192 222.832L94.872 199.408C90.392 205.68 85.72 211.376 80.856 216.496C75.992 221.616 71.128 226.032 66.264 229.744C61.4 233.456 56.6 236.272 51.864 238.192C47 240.24 42.328 241.264 37.848 241.264ZM46.296 318.832C46.296 320.368 46.616 321.456 47.256 322.096C47.768 322.864 48.6 323.248 49.752 323.248C50.648 323.248 51.544 322.864 52.44 322.096C53.336 321.456 54.296 320.176 55.32 318.256C56.216 316.336 57.368 313.52 58.776 309.808C60.184 306.224 61.848 301.424 63.768 295.408L77.592 252.784C74.264 257.776 71.128 262.576 68.184 267.184C65.368 271.92 62.808 276.4 60.504 280.624C58.072 284.848 56.024 288.816 54.36 292.528C52.568 296.368 51.096 299.888 49.944 303.088C48.792 306.288 47.896 309.168 47.256 311.728C46.616 314.416 46.296 316.784 46.296 318.832ZM106.392 219.376C109.464 221.68 112.6 223.408 115.8 224.56C119 225.712 122.328 226.288 125.784 226.288C131.16 226.288 136.28 224.944 141.144 222.256C146.008 219.568 150.424 216.048 154.392 211.696C158.488 207.216 162.008 202.288 164.952 196.912C167.896 191.536 170.136 186.096 171.672 180.592C173.336 174.96 174.168 169.712 174.168 164.848C174.168 161.136 173.4 158.384 171.864 156.592C170.456 154.672 168.28 153.712 165.336 153.712C163.16 153.712 160.792 154.352 158.232 155.632C155.8 156.912 152.984 159.088 149.784 162.16C146.584 165.104 142.872 169.136 138.648 174.256C134.552 179.248 129.816 185.456 124.44 192.88C119.192 200.304 113.176 209.136 106.392 219.376ZM213.945 240.688C209.465 240.688 206.905 239.792 206.265 238C205.753 236.208 206.649 233.712 208.953 230.512L329.337 61.744H243.705C242.425 61.744 241.465 61.424 240.825 60.784C240.313 60.144 240.057 59.184 240.057 57.904C240.057 54.448 240.825 51.696 242.361 49.648C244.025 47.472 245.817 46.384 247.737 46.384H348.537C350.329 46.384 351.929 47.408 353.337 49.456C354.745 51.376 354.425 53.808 352.377 56.752L227.001 232.432C225.209 235.12 223.289 237.168 221.241 238.576C219.321 239.984 216.889 240.688 213.945 240.688Z" fill="white"></path></svg></g></g><defs><clipPath id="SvgjsClipPath1207"><rect width="1000" height="1000" x="0" y="0" rx="150" ry="150"></rect></clipPath></defs></svg></g><g id="dark-icon"><svg xmlns="http://www.w3.org/2000/svg" version="1.1" xmlns:xlink="http://www.w3.org/1999/xlink" width="1000" height="1000"><g clip-path="url(#SvgjsClipPath1208)"><rect width="1000" height="1000" fill="#fe640b"></rect><g transform="matrix(2.0833333333333335,0,0,2.0833333333333335,100,100)"><svg xmlns="http://www.w3.org/2000/svg" width="384" height="384" viewBox="0 0 384 384" fill="none"><rect width="384" height="384" fill="#FE640B"></rect><path d="M37.848 241.264C36.056 241.264 34.776 240.496 34.008 238.96C33.24 237.552 33.048 235.952 33.432 234.16C33.816 232.24 34.776 230.576 36.312 229.168C37.848 227.632 39.96 226.864 42.648 226.864C45.72 226.864 49.624 225.392 54.36 222.448C58.968 219.376 63.96 215.216 69.336 209.968C74.84 204.72 80.28 198.704 85.656 191.92C91.16 185.008 96.216 177.648 100.824 169.84C105.432 162.032 109.208 154.16 112.152 146.224L112.536 145.264C113.432 142.704 114.456 141.04 115.608 140.272C116.888 139.504 118.744 139.12 121.176 139.12C125.144 139.12 127.64 139.76 128.664 141.04C129.816 142.192 129.944 144.048 129.048 146.608L117.144 182.896C124.696 172.272 131.544 163.696 137.688 157.168C143.832 150.64 149.592 145.904 154.968 142.96C160.344 139.888 165.592 138.352 170.712 138.352C177.112 138.352 182.168 140.464 185.88 144.688C189.592 148.912 191.448 154.864 191.448 162.544C191.448 169.712 190.296 177.008 187.992 184.432C185.688 191.856 182.424 198.96 178.2 205.744C174.104 212.528 169.24 218.608 163.608 223.984C158.104 229.232 152.024 233.456 145.368 236.656C138.712 239.728 131.8 241.264 124.632 241.264C119.896 241.264 115.544 240.496 111.576 238.96C107.736 237.424 104.152 235.44 100.824 233.008L79.128 299.824C75.928 309.68 72.728 317.36 69.528 322.864C66.456 328.368 63.128 332.208 59.544 334.384C55.96 336.56 51.992 337.648 47.64 337.648C45.208 337.648 42.648 337.072 39.96 335.92C37.144 334.768 34.776 332.784 32.856 329.968C30.936 327.152 29.976 323.248 29.976 318.256C29.976 315.056 30.552 311.472 31.704 307.504C32.856 303.664 34.584 299.376 36.888 294.64C39.064 289.904 41.816 284.848 45.144 279.472C48.472 274.096 52.312 268.336 56.664 262.192C60.888 256.176 65.56 249.84 70.68 243.184C75.8 236.656 81.304 229.872 87.192 222.832L94.872 199.408C90.392 205.68 85.72 211.376 80.856 216.496C75.992 221.616 71.128 226.032 66.264 229.744C61.4 233.456 56.6 236.272 51.864 238.192C47 240.24 42.328 241.264 37.848 241.264ZM46.296 318.832C46.296 320.368 46.616 321.456 47.256 322.096C47.768 322.864 48.6 323.248 49.752 323.248C50.648 323.248 51.544 322.864 52.44 322.096C53.336 321.456 54.296 320.176 55.32 318.256C56.216 316.336 57.368 313.52 58.776 309.808C60.184 306.224 61.848 301.424 63.768 295.408L77.592 252.784C74.264 257.776 71.128 262.576 68.184 267.184C65.368 271.92 62.808 276.4 60.504 280.624C58.072 284.848 56.024 288.816 54.36 292.528C52.568 296.368 51.096 299.888 49.944 303.088C48.792 306.288 47.896 309.168 47.256 311.728C46.616 314.416 46.296 316.784 46.296 318.832ZM106.392 219.376C109.464 221.68 112.6 223.408 115.8 224.56C119 225.712 122.328 226.288 125.784 226.288C131.16 226.288 136.28 224.944 141.144 222.256C146.008 219.568 150.424 216.048 154.392 211.696C158.488 207.216 162.008 202.288 164.952 196.912C167.896 191.536 170.136 186.096 171.672 180.592C173.336 174.96 174.168 169.712 174.168 164.848C174.168 161.136 173.4 158.384 171.864 156.592C170.456 154.672 168.28 153.712 165.336 153.712C163.16 153.712 160.792 154.352 158.232 155.632C155.8 156.912 152.984 159.088 149.784 162.16C146.584 165.104 142.872 169.136 138.648 174.256C134.552 179.248 129.816 185.456 124.44 192.88C119.192 200.304 113.176 209.136 106.392 219.376ZM213.945 240.688C209.465 240.688 206.905 239.792 206.265 238C205.753 236.208 206.649 233.712 208.953 230.512L329.337 61.744H243.705C242.425 61.744 241.465 61.424 240.825 60.784C240.313 60.144 240.057 59.184 240.057 57.904C240.057 54.448 240.825 51.696 242.361 49.648C244.025 47.472 245.817 46.384 247.737 46.384H348.537C350.329 46.384 351.929 47.408 353.337 49.456C354.745 51.376 354.425 53.808 352.377 56.752L227.001 232.432C225.209 235.12 223.289 237.168 221.241 238.576C219.321 239.984 216.889 240.688 213.945 240.688Z" fill="white"></path></svg></g></g><defs><clipPath id="SvgjsClipPath1208"><rect width="1000" height="1000" x="0" y="0" rx="150" ry="150"></rect></clipPath></defs></svg></g></svg>